HIERARCHY
ROOT Hips
{
  OFFSET 0.000000 0.000000 0.000000
  CHANNELS 6 Xposition Yposition Zposition Zrotation Xrotation Yrotation
  JOINT Spine
  {
    OFFSET 0.000000 10.000000 0.000000
    CHANNELS 3 Zrotation Xrotation Yrotation
    JOINT Spine1
    {
      OFFSET 0.000000 10.000000 0.000000
      CHANNELS 3 Zrotation Xrotation Yrotation
      JOINT Spine2
      {
        OFFSET 0.000000 10.000000 0.000000
        CHANNELS 3 Zrotation Xrotation Yrotation
        JOINT Neck
        {
          OFFSET 0.000000 10.000000 0.000000
          CHANNELS 3 Zrotation Xrotation Yrotation
          JOINT Head
          {
            OFFSET 0.000000 10.000000 0.000000
            CHANNELS 3 Zrotation Xrotation Yrotation
            End Site
            {
              OFFSET 0.0 -10.0 0.0
            }
          }
        }
        JOINT LeftShoulder
        {
          OFFSET -5.000000 5.000000 0.000000
          CHANNELS 3 Zrotation Xrotation Yrotation
          JOINT LeftArm
          {
            OFFSET -10.000000 0.000000 0.000000
            CHANNELS 3 Zrotation Xrotation Yrotation
            JOINT LeftForeArm
            {
              OFFSET -10.000000 0.000000 0.000000
              CHANNELS 3 Zrotation Xrotation Yrotation
              JOINT LeftHand
              {
                OFFSET -10.000000 0.000000 0.000000
                CHANNELS 3 Zrotation Xrotation Yrotation
                End Site
                {
                  OFFSET 0.0 -10.0 0.0
                }
              }
            }
          }
        }
        JOINT RightShoulder
        {
          OFFSET 5.000000 5.000000 0.000000
          CHANNELS 3 Zrotation Xrotation Yrotation
          JOINT RightArm
          {
            OFFSET 10.000000 0.000000 0.000000
            CHANNELS 3 Zrotation Xrotation Yrotation
            JOINT RightForeArm
            {
              OFFSET 10.000000 0.000000 0.000000
              CHANNELS 3 Zrotation Xrotation Yrotation
              JOINT RightHand
              {
                OFFSET 10.000000 0.000000 0.000000
                CHANNELS 3 Zrotation Xrotation Yrotation
                End Site
                {
                  OFFSET 0.0 -10.0 0.0
                }
              }
            }
          }
        }
      }
    }
  }
  JOINT LeftUpLeg
  {
    OFFSET 0.000000 0.000000 0.000000
    CHANNELS 3 Zrotation Xrotation Yrotation
    JOINT LeftLeg
    {
      OFFSET 0.000000 0.000000 0.000000
      CHANNELS 3 Zrotation Xrotation Yrotation
      JOINT LeftFoot
      {
        OFFSET 0.000000 0.000000 0.000000
        CHANNELS 3 Zrotation Xrotation Yrotation
        End Site
        {
          OFFSET 0.0 -10.0 0.0
        }
      }
    }
  }
  JOINT RightUpLeg
  {
    OFFSET 5.000000 -5.000000 0.000000
    CHANNELS 3 Zrotation Xrotation Yrotation
    JOINT RightLeg
    {
      OFFSET 0.000000 -20.000000 0.000000
      CHANNELS 3 Zrotation Xrotation Yrotation
      JOINT RightFoot
      {
        OFFSET 0.000000 -20.000000 0.000000
        CHANNELS 3 Zrotation Xrotation Yrotation
        End Site
        {
          OFFSET 0.0 -10.0 0.0
        }
      }
    }
  }
}
MOTION
Frames: 18
Frame Time: 0.033333
0.000000 90.000000 0.000000 0.000000 0.000000 0.000000 -20.216101 0.000000 0.000000 -26.148859 0.000000 0.000000 33.610155 0.000000 0.000000 -8.009854 0.000000 0.000000 0.000000 0.000000 0.000000 37.975329 -4.142647 -11.996319 -2.454079 -0.138616 6.510109 26.565051 0.000000 0.000000 0.000000 0.000000 0.000000 -51.486622 -2.897974 5.930507 45.114198 -13.007572 -30.522063 -26.565051 0.000000 0.000000 0.000000 0.000000 0.000000 -72.700927 6.239952 4.594622 -36.151072 3.384444 1.083039 0.000000 0.000000 0.000000 -118.482971 -3.579080 -6.014588 -157.452673 -3.920758 -20.160271 0.000000 0.000000 0.000000
0.000000 90.000000 0.000000 0.000000 0.000000 0.000000 -19.915335 0.000000 0.000000 -25.781228 0.000000 0.000000 33.381106 0.000000 0.000000 -7.812474 0.000000 0.000000 0.000000 0.000000 0.000000 38.188634 -4.179788 -12.033443 -2.241399 -0.129579 6.690402 26.565051 0.000000 0.000000 0.000000 0.000000 0.000000 -52.484133 -3.007856 6.043663 45.722555 -13.468035 -30.936321 -26.565051 0.000000 0.000000 0.000000 0.000000 0.000000 -72.848374 6.353678 4.691210 -34.795367 3.549481 1.101751 0.000000 0.000000 0.000000 -118.264530 -3.409728 -5.720172 -156.323738 -3.902178 -18.793954 0.000000 0.000000 0.000000
0.000000 90.000000 0.000000 0.000000 0.000000 0.000000 -19.580343 0.000000 0.000000 -25.371339 0.000000 0.000000 33.234067 0.000000 0.000000 -7.554952 0.000000 0.000000 0.000000 0.000000 0.000000 38.318557 -4.201703 -12.053544 -2.370001 -0.154049 7.123529 26.565051 0.000000 0.000000 0.000000 0.000000 0.000000 -53.308053 -3.094909 6.146581 47.217114 -14.452390 -31.758622 -26.565051 0.000000 0.000000 0.000000 0.000000 0.000000 -73.060311 6.418197 4.756393 -33.814512 3.673829 1.109876 0.000000 0.000000 0.000000 -117.933903 -3.259008 -5.449847 -155.387633 -3.889465 -17.809225 0.000000 0.000000 0.000000
0.000000 90.000000 0.000000 0.000000 0.000000 0.000000 -19.261372 0.000000 0.000000 -24.979882 0.000000 0.000000 33.263662 0.000000 0.000000 -7.250106 0.000000 0.000000 0.000000 0.000000 0.000000 38.395908 -4.217737 -12.073599 -2.809289 -0.219494 7.802306 26.565051 0.000000 0.000000 0.000000 0.000000 0.000000 -54.158797 -3.169395 6.198103 48.851505 -15.510590 -32.743165 -26.565051 0.000000 0.000000 0.000000 0.000000 0.000000 -73.365690 6.438757 4.797102 -33.073990 3.788803 1.120973 0.000000 0.000000 0.000000 -117.299291 -3.098854 -5.126566 -154.657885 -3.877596 -17.197999 0.000000 0.000000 0.000000
0.000000 90.000000 0.000000 0.000000 0.000000 0.000000 -18.940108 0.000000 0.000000 -24.584480 0.000000 0.000000 33.222210 0.000000 0.000000 -6.969452 0.000000 0.000000 0.000000 0.000000 0.000000 38.459570 -4.234867 -12.100402 -3.353736 -0.293026 8.461604 26.565051 0.000000 0.000000 0.000000 0.000000 0.000000 -54.031276 -3.087626 6.039932 51.216170 -17.176262 -34.167127 -26.565051 0.000000 0.000000 0.000000 0.000000 0.000000 -73.984999 6.342535 4.776158 -32.427829 3.910250 1.135406 0.000000 0.000000 0.000000 -116.117362 -2.883628 -4.681222 -154.042295 -3.895496 -16.860466 0.000000 0.000000 0.000000
0.000000 90.000000 0.000000 0.000000 0.000000 0.000000 -18.679391 0.000000 0.000000 -24.263033 0.000000 0.000000 33.333680 0.000000 0.000000 -6.690907 0.000000 0.000000 0.000000 0.000000 0.000000 38.528078 -4.256272 -12.136942 -3.890061 -0.362402 9.116587 26.565051 0.000000 0.000000 0.000000 0.000000 0.000000 -53.596920 -2.935527 5.749972 53.640212 -19.115980 -35.634998 -26.565051 0.000000 0.000000 0.000000 0.000000 0.000000 -74.436745 6.315923 4.796013 -32.158970 3.987190 1.147027 0.000000 0.000000 0.000000 -115.285988 -2.706308 -4.330216 -153.305285 -3.877996 -16.340431 0.000000 0.000000 0.000000
0.000000 90.000000 0.000000 0.000000 0.000000 0.000000 -18.382845 0.000000 0.000000 -23.896420 0.000000 0.000000 33.385148 0.000000 0.000000 -6.401583 0.000000 0.000000 0.000000 0.000000 0.000000 38.549978 -4.268588 -12.164171 -4.687770 -0.483653 9.975510 26.565051 0.000000 0.000000 0.000000 0.000000 0.000000 -52.540710 -2.719996 5.383720 56.669460 -21.586425 -37.421910 -26.565051 0.000000 0.000000 0.000000 0.000000 0.000000 -74.819766 6.324839 4.837403 -31.899791 4.063483 1.158448 0.000000 0.000000 0.000000 -114.466284 -2.537326 -3.998416 -152.457347 -3.845855 -15.748118 0.000000 0.000000 0.000000
0.000000 90.000000 0.000000 0.000000 0.000000 0.000000 -18.083594 0.000000 0.000000 -23.525750 0.000000 0.000000 33.362088 0.000000 0.000000 -6.136568 0.000000 0.000000 0.000000 0.000000 0.000000 38.607295 -4.290014 -12.205400 -5.435591 -0.577166 10.836959 26.565051 0.000000 0.000000 0.000000 0.000000 0.000000 -51.000418 -2.437737 4.922698 59.692400 -24.152390 -39.109459 -26.565051 0.000000 0.000000 0.000000 0.000000 0.000000 -75.318097 6.312046 4.873336 -31.454572 4.151075 1.166911 0.000000 0.000000 0.000000 -113.682348 -2.349651 -3.640568 -151.399974 -3.804100 -15.077888 0.000000 0.000000 0.000000
0.000000 90.000000 0.000000 0.000000 0.000000 0.000000 -17.768100 0.000000 0.000000 -23.133674 0.000000 0.000000 33.353661 0.000000 0.000000 -5.852672 0.000000 0.000000 0.000000 0.000000 0.000000 38.633663 -4.300070 -12.225161 -6.466164 -0.729421 11.898938 26.565051 0.000000 0.000000 0.000000 0.000000 0.000000 -49.234750 -2.191271 4.567659 62.871223 -27.073563 -40.918738 -26.565051 0.000000 0.000000 0.000000 0.000000 0.000000 -75.879665 6.259173 4.881518 -31.039354 4.231497 1.173828 0.000000 0.000000 0.000000 -112.895225 -2.166391 -3.303364 -150.158981 -3.756908 -14.348664 0.000000 0.000000 0.000000
0.000000 90.000000 0.000000 0.000000 0.000000 0.000000 -17.456766 0.000000 0.000000 -22.746096 0.000000 0.000000 33.404146 0.000000 0.000000 -5.551762 0.000000 0.000000 0.000000 0.000000 0.000000 38.651602 -4.303505 -12.229049 -8.017941 -1.086837 13.336208 26.565051 0.000000 0.000000 0.000000 0.000000 0.000000 -47.558314 -1.969592 4.258382 66.475791 -30.670970 -42.756829 -26.565051 0.000000 0.000000 0.000000 0.000000 0.000000 -76.276770 6.263010 4.919038 -30.641454 4.299773 1.176841 0.000000 0.000000 0.000000 -112.347398 -2.015928 -3.028850 -148.762022 -3.694175 -13.521234 0.000000 0.000000 0.000000
0.000000 90.000000 0.000000 0.000000 0.000000 0.000000 -17.129785 0.000000 0.000000 -22.337928 0.000000 0.000000 33.318200 0.000000 0.000000 -5.286359 0.000000 0.000000 0.000000 0.000000 0.000000 38.608352 -4.286840 -12.195212 -9.823417 -1.614837 14.994235 26.565051 0.000000 0.000000 0.000000 0.000000 0.000000 -45.613771 -1.701767 3.937387 70.653623 -34.479080 -44.819429 -26.565051 0.000000 0.000000 0.000000 0.000000 0.000000 -76.418117 6.319790 4.974413 -30.308116 4.347869 1.177134 0.000000 0.000000 0.000000 -112.010949 -1.915395 -2.844466 -147.399184 -3.638731 -12.749338 0.000000 0.000000 0.000000
0.000000 90.000000 0.000000 0.000000 0.000000 0.000000 -16.867440 0.000000 0.000000 -22.010088 0.000000 0.000000 33.514117 0.000000 0.000000 -4.978858 0.000000 0.000000 0.000000 0.000000 0.000000 38.467219 -4.246580 -12.126363 -11.680864 -2.203829 16.962425 26.565051 0.000000 0.000000 0.000000 0.000000 0.000000 -43.734515 -1.491979 3.646548 74.929264 -38.178897 -46.257003 -26.565051 0.000000 0.000000 0.000000 0.000000 0.000000 -76.141104 6.485737 5.075228 -30.067386 4.367699 1.173038 0.000000 0.000000 0.000000 -112.179726 -1.902167 -2.835714 -146.149519 -3.584615 -11.979437 0.000000 0.000000 0.000000
0.000000 90.000000 0.000000 0.000000 0.000000 0.000000 -16.579890 0.000000 0.000000 -21.650493 0.000000 0.000000 33.593888 0.000000 0.000000 -4.690039 0.000000 0.000000 0.000000 0.000000 0.000000 38.290758 -4.195257 -12.039537 -13.614226 -2.810984 19.182049 26.565051 0.000000 0.000000 0.000000 0.000000 0.000000 -41.997499 -1.347607 3.467733 79.116450 -41.503287 -47.314479 -26.565051 0.000000 0.000000 0.000000 0.000000 0.000000 -75.690453 6.652439 5.155354 -29.927657 4.372910 1.169020 0.000000 0.000000 0.000000 -112.369458 -1.941583 -2.911670 -145.051859 -3.544332 -11.369199 0.000000 0.000000 0.000000
0.000000 90.000000 0.000000 0.000000 0.000000 0.000000 -16.310637 0.000000 0.000000 -21.312787 0.000000 0.000000 33.705260 0.000000 0.000000 -4.407470 0.000000 0.000000 0.000000 0.000000 0.000000 38.214506 -4.165133 -11.980258 -15.390937 -3.418874 21.328720 26.565051 0.000000 0.000000 0.000000 0.000000 0.000000 -40.511742 -1.259079 3.392960 82.796547 -44.427095 -48.203994 -26.565051 0.000000 0.000000 0.000000 0.000000 0.000000 -75.099567 6.856542 5.245437 -30.019994 4.354804 1.167416 0.000000 0.000000 0.000000 -112.683313 -1.991199 -3.010273 -144.303956 -3.521800 -10.964286 0.000000 0.000000 0.000000
0.000000 90.000000 0.000000 0.000000 0.000000 0.000000 -16.066000 0.000000 0.000000 -21.005572 0.000000 0.000000 33.942070 0.000000 0.000000 -4.101888 0.000000 0.000000 0.000000 0.000000 0.000000 38.152260 -4.139038 -11.928366 -16.526137 -3.705672 23.359440 26.565051 0.000000 0.000000 0.000000 0.000000 0.000000 -39.214546 -1.230489 3.450026 86.130457 -46.858696 -48.948171 -26.565051 0.000000 0.000000 0.000000 0.000000 0.000000 -73.994064 7.222378 5.383645 -30.372207 4.304066 1.165862 0.000000 0.000000 0.000000 -113.283848 -2.086080 -3.201512 -144.038519 -3.497174 -10.766877 0.000000 0.000000 0.000000
0.000000 90.000000 0.000000 0.000000 0.000000 0.000000 -15.906464 0.000000 0.000000 -20.804945 0.000000 0.000000 34.150423 0.000000 0.000000 -3.883988 0.000000 0.000000 0.000000 0.000000 0.000000 38.108305 -4.123222 -11.898764 -14.881621 -3.478306 24.056364 26.565051 0.000000 0.000000 0.000000 0.000000 0.000000 -37.853133 -1.195033 3.489233 89.478773 -49.126345 -49.207926 -26.565051 0.000000 0.000000 0.000000 0.000000 0.000000 -72.463226 7.723651 5.577759 -30.924019 4.220645 1.161826 0.000000 0.000000 0.000000 -114.376985 -2.244441 -3.531370 -144.310580 -3.466149 -10.771044 0.000000 0.000000 0.000000
0.000000 90.000000 0.000000 0.000000 0.000000 0.000000 -15.839282 0.000000 0.000000 -20.720517 0.000000 0.000000 34.150330 0.000000 0.000000 -3.823614 0.000000 0.000000 0.000000 0.000000 0.000000 38.092463 -4.125930 -11.911837 -12.543620 -3.102570 24.540489 26.565051 0.000000 0.000000 0.000000 0.000000 0.000000 -36.346530 -1.139144 3.470115 92.348444 -50.848777 -48.776959 -26.565051 0.000000 0.000000 0.000000 0.000000 0.000000 -70.458322 8.308372 5.758279 -31.790454 4.086271 1.153207 0.000000 0.000000 0.000000 -115.830042 -2.465300 -4.040970 -145.106645 -3.435712 -10.987711 0.000000 0.000000 0.000000
0.000000 90.000000 0.000000 0.000000 0.000000 0.000000 -15.919317 0.000000 0.000000 -20.821040 0.000000 0.000000 34.335098 0.000000 0.000000 -3.828810 0.000000 0.000000 0.000000 0.000000 0.000000 38.136566 -4.155107 -11.979830 -9.494529 -2.595790 24.156298 26.565051 0.000000 0.000000 0.000000 0.000000 0.000000 -34.880375 -1.049621 3.330937 94.054310 -51.527590 -48.284995 -26.565051 0.000000 0.000000 0.000000 0.000000 0.000000 -68.535860 8.849473 5.913123 -32.738728 3.944509 1.144941 0.000000 0.000000 0.000000 -117.430221 -2.707422 -4.630698 -146.285220 -3.416364 -11.422350 0.000000 0.000000 0.000000
